<?xml version="1.0" encoding="UTF-8"?>
<svg id="Calque_1" xmlns="http://www.w3.org/2000/svg" version="1.1" viewBox="0 0 17.5 20">
  <!-- Generator: Adobe Illustrator 29.5.1, SVG Export Plug-In . SVG Version: 2.1.0 Build 141)  -->
  <defs>
    <style>
      .st0 {
        fill: #fff;
      }
    </style>
  </defs>
  <path class="st0" d="M8.75,5.51c-2.48,0-4.49,2-4.49,4.49s2,4.49,4.49,4.49,4.49-2,4.49-4.49-2-4.49-4.49-4.49ZM8.75,12.91c-1.61,0-2.92-1.31-2.92-2.92s1.31-2.92,2.92-2.92,2.92,1.31,2.92,2.92-1.31,2.92-2.92,2.92ZM14.47,5.32c0,.58-.47,1.05-1.05,1.05s-1.05-.47-1.05-1.05.47-1.05,1.05-1.05,1.05.47,1.05,1.05ZM17.45,6.39c-.07-1.4-.39-2.64-1.41-3.67-1.02-1.02-2.27-1.34-3.67-1.41-1.45-.08-5.78-.08-7.22,0-1.4.07-2.64.39-3.67,1.41S.13,4.98.06,6.38C-.02,7.83-.02,12.16.06,13.61c.07,1.4.39,2.64,1.41,3.67,1.03,1.02,2.27,1.34,3.67,1.41,1.45.08,5.78.08,7.22,0,1.4-.07,2.64-.39,3.67-1.41,1.02-1.02,1.34-2.27,1.41-3.67.08-1.45.08-5.77,0-7.22ZM15.58,15.16c-.3.77-.89,1.36-1.66,1.66-1.15.46-3.89.35-5.16.35s-4.01.1-5.16-.35c-.77-.3-1.36-.89-1.66-1.66-.46-1.15-.35-3.89-.35-5.16s-.1-4.01.35-5.16c.3-.77.89-1.36,1.66-1.66,1.15-.46,3.89-.35,5.16-.35s4.01-.1,5.16.35c.77.3,1.36.89,1.66,1.66.46,1.15.35,3.89.35,5.16s.11,4.01-.35,5.16Z"/>
</svg>