<?xml version="1.0" encoding="UTF-8"?>
<svg xmlns="http://www.w3.org/2000/svg" version="1.1" viewBox="0 0 17.5 20">
  <!-- Generator: Adobe Illustrator 29.5.1, SVG Export Plug-In . SVG Version: 2.1.0 Build 141)  -->
  <defs>
    <style>
      .st0 {
        fill: #fff;
      }
    </style>
  </defs>
  <g id="Calque_2">
    <rect x="1.28" y="2.88" width="14.6" height="14.6"/>
  </g>
  <g id="Calque_1">
    <path class="st0" d="M16.25,1.25H1.25c-.69,0-1.25.57-1.25,1.26v14.98c0,.7.56,1.26,1.25,1.26h15c.69,0,1.25-.57,1.25-1.26V2.51c0-.7-.56-1.26-1.25-1.26ZM5.29,16.25h-2.59V7.9h2.6v8.35h0ZM3.99,6.76c-.83,0-1.5-.68-1.5-1.5s.67-1.5,1.5-1.5,1.5.68,1.5,1.5-.67,1.5-1.5,1.5ZM15.01,16.25h-2.59v-4.06c0-.97-.02-2.21-1.35-2.21s-1.56,1.05-1.56,2.14v4.13h-2.59V7.9h2.49v1.14h.04c.35-.66,1.2-1.35,2.46-1.35,2.62,0,3.11,1.73,3.11,3.98v4.58Z"/>
  </g>
</svg>